<?xml version="1.0" encoding="UTF-8"?>
<svg version="1.1" xmlns="http://www.w3.org/2000/svg" width="722" height="722">
<path d="M0 0 C5.53931643 0.01143657 11.07855776 -0.00620943 16.61785865 -0.01989961 C27.43606385 -0.04200673 38.25409454 -0.03738705 49.07230628 -0.0228364 C57.87299678 -0.0114945 66.67363875 -0.01003456 75.47433448 -0.01545548 C76.73206924 -0.01622165 77.98980401 -0.01698781 79.28565195 -0.0177772 C81.84157933 -0.019376 84.3975067 -0.02099707 86.95343405 -0.02264015 C110.17954485 -0.03645646 133.4055541 -0.02218542 156.63164336 0.00407283 C177.77598929 0.02779596 198.92018457 0.02567261 220.06452918 0.00176787 C243.89143195 -0.02508043 267.71825184 -0.03548801 291.54517484 -0.02017081 C294.09113128 -0.01857824 296.63708773 -0.01700639 299.1830442 -0.01545548 C301.06150304 -0.01429842 301.06150304 -0.01429842 302.97791055 -0.01311798 C311.756972 -0.00882045 320.53597961 -0.0160453 329.31503272 -0.02785325 C340.02961614 -0.04194923 350.74401667 -0.03793017 361.45857942 -0.01144953 C366.91397035 0.00159371 372.36905755 0.0070052 377.82444549 -0.00969529 C427.92453114 -0.15002517 470.15460495 9.45173747 506.82868934 45.65362334 C521.91029653 60.71234494 533.10192261 79.21730383 540.64118934 99.09112334 C540.90705848 99.78053008 541.17292762 100.46993682 541.4468534 101.18023467 C546.84023636 116.16468074 548.42022661 130.76410629 548.34335303 146.55787444 C548.34869141 148.50122919 548.35576445 150.44457981 548.36440009 152.3879227 C548.38288338 157.67694326 548.37677221 162.96568109 548.36624706 168.2547127 C548.35921403 173.97880204 548.375284 179.70283567 548.38824439 185.42690825 C548.40982173 196.6210299 548.40977351 207.81504964 548.40161885 219.00918523 C548.39530378 228.11327677 548.39646968 237.21733873 548.40289092 246.32142997 C548.40379258 247.62012311 548.40469423 248.91881626 548.40562321 250.25686374 C548.40747453 252.89566278 548.40933709 255.53446181 548.41121077 258.17326083 C548.4230699 275.87426285 548.42750397 293.57525221 548.41627574 311.27625537 C548.41583777 311.96726468 548.4153998 312.65827398 548.41494856 313.37022297 C548.41134236 318.98037416 548.40750727 324.59052519 548.40365763 330.20067622 C548.38881485 352.07558185 548.39758812 373.95036257 548.42561316 395.8252542 C548.45709973 420.44862449 548.47192453 445.07191807 548.46181315 469.6953091 C548.46079067 472.32499586 548.45979606 474.95468264 548.45882964 477.58436942 C548.45835325 478.87800062 548.45787686 480.17163183 548.45738604 481.50446397 C548.45522795 490.58839553 548.46499376 499.6722686 548.47960067 508.7561872 C548.49717573 519.83995138 548.49693263 530.92354596 548.47424901 542.00730363 C548.46315345 547.65455224 548.45983752 553.3015026 548.47854972 558.94873786 C548.49550368 564.1323498 548.48880397 569.3154068 548.46433293 574.49898376 C548.45949774 576.36017751 548.46283145 578.22141732 548.47582037 580.08257202 C548.58503369 596.96882334 545.71539523 613.42974247 539.01618934 629.02862334 C538.50427039 630.25500518 538.50427039 630.25500518 537.98200965 631.50616241 C522.19291649 668.60835653 492.52688936 698.19943084 455.16462684 713.62627959 C453.57667047 714.24777258 451.98556425 714.86128652 450.39118934 715.46612334 C449.35707923 715.86492705 449.35707923 715.86492705 448.30207801 716.27178741 C433.31763194 721.66517037 418.71820639 723.24516062 402.92443824 723.16828704 C400.98108349 723.17362541 399.03773287 723.18069845 397.09438998 723.18933409 C391.80536942 723.20781738 386.51663159 723.20170622 381.22759998 723.19118106 C375.50351064 723.18414803 369.77947701 723.200218 364.05540442 723.2131784 C352.86128278 723.23475574 341.66726304 723.23470752 330.47312745 723.22655285 C321.36903591 723.22023778 312.26497395 723.22140368 303.16088271 723.22782493 C301.86218957 723.22872658 300.56349642 723.22962824 299.22544894 723.23055721 C296.5866499 723.23240853 293.94785087 723.23427109 291.30905185 723.23614477 C273.60804983 723.24800391 255.90706047 723.25243798 238.20605731 723.24120975 C237.515048 723.24077177 236.82403869 723.2403338 236.11208971 723.23988256 C230.50193852 723.23627637 224.89178749 723.23244127 219.28163646 723.22859163 C197.40673083 723.21374885 175.53195011 723.22252212 153.65705848 723.25054717 C129.03368819 723.28203373 104.41039461 723.29685854 79.78700358 723.28674716 C77.15731681 723.28572468 74.52763004 723.28473006 71.89794326 723.28376365 C70.60431206 723.28328726 69.31068085 723.28281087 67.9778487 723.28232004 C58.89391715 723.28016196 49.81004408 723.28992777 40.72612548 723.30453467 C29.64236129 723.32210973 18.55876672 723.32186664 7.47500905 723.29918302 C1.82776044 723.28808745 -3.81918992 723.28477153 -9.46642518 723.30348372 C-14.65003712 723.32043769 -19.83309412 723.31373798 -25.01667108 723.28926694 C-26.87786483 723.28443174 -28.73910464 723.28776545 -30.60025934 723.30075438 C-47.48651066 723.4099677 -63.94742979 720.54032924 -79.54631066 713.84112334 C-80.36389855 713.49984405 -81.18148644 713.15856475 -82.02384973 712.80694366 C-119.89712331 696.68971234 -149.49923768 666.26999392 -164.97638953 628.09578156 C-174.92890003 602.37341763 -174.90803057 576.6266605 -174.82493401 549.48231268 C-174.81349743 543.94299625 -174.83114344 538.40375492 -174.84483361 532.86445403 C-174.86694073 522.04624883 -174.86232105 511.22821814 -174.84777041 500.4100064 C-174.8364285 491.6093159 -174.83496856 482.80867393 -174.84038949 474.0079782 C-174.84115566 472.75024343 -174.84192182 471.49250867 -174.8427112 470.19666073 C-174.84431 467.64073335 -174.84593107 465.08480598 -174.84757416 462.52887863 C-174.86139046 439.30276782 -174.84711943 416.07675858 -174.82086117 392.85066932 C-174.79713805 371.70632339 -174.7992614 350.56212811 -174.82316613 329.4177835 C-174.85001444 305.59088073 -174.86042202 281.76406084 -174.84510481 257.93713784 C-174.84351225 255.3911814 -174.84194039 252.84522495 -174.84038949 250.29926848 C-174.83961811 249.04696259 -174.83884673 247.79465669 -174.83805198 246.50440213 C-174.83375445 237.72534068 -174.84097931 228.94633307 -174.85278726 220.16727996 C-174.86688324 209.45269654 -174.86286417 198.73829601 -174.83638354 188.02373326 C-174.8233403 182.56834233 -174.8179288 177.11325513 -174.8346293 171.65786719 C-174.97495918 121.55778154 -165.37319654 79.32770773 -129.17131066 42.65362334 C-93.26530583 6.69305012 -48.58455359 -0.14873113 0 0 Z " fill="#000000" transform="translate(174.17131066322327,-0.6536233425140381)"/>
<path d="M0 0 C0.81210937 0.25007812 1.62421875 0.50015625 2.4609375 0.7578125 C4.65547832 1.46757106 6.82621111 2.22900098 9 3 C13.33576439 4.49753356 17.67998137 5.96139235 22.04589844 7.36816406 C23.91177835 7.97147456 25.77245171 8.59081724 27.6328125 9.2109375 C43.93479774 14.17547296 58.22044906 12.81444052 74 7 C75.78707781 6.46363285 77.5782399 5.94048105 79.375 5.4375 C82.54942336 4.50353743 85.52618849 3.37467482 88.5625 2.0625 C111.2367353 -7.0001959 135.48594577 -6.50297641 158.125 2.25 C172.32360766 8.55834878 184.02586578 16.92946609 195.0625 27.8125 C195.63556885 28.37606201 196.2086377 28.93962402 196.79907227 29.52026367 C199.23974749 31.98091108 200.88940029 33.66820087 202 37 C201.24976563 37.47308594 200.49953125 37.94617188 199.7265625 38.43359375 C179.33873208 51.60608368 164.66593282 69.50310395 159.28857422 93.52832031 C157.42660464 102.68223974 157.48740008 111.70862189 158 121 C158.05929687 122.21171875 158.11859375 123.4234375 158.1796875 124.671875 C160.35461798 147.26993319 173.85928949 168.05569629 190.9140625 182.4140625 C197.98901715 187.79314787 205.86834071 191.5061692 214 195 C205.15353145 224.03335688 185.48815283 251.9866064 165.39208984 274.42285156 C164.08059061 275.90869601 162.81397926 277.43381774 161.55078125 278.9609375 C152.06298036 290.15811078 138.75260653 299.61985563 124 302 C112.59347713 302.90119255 103.64165331 301.34321274 93 297 C92.27006836 296.70577148 91.54013672 296.41154297 90.78808594 296.10839844 C87.10493942 294.61853356 83.43534343 293.10128778 79.77734375 291.55078125 C58.56336583 282.70344654 35.43175926 284.432864 14.4375 292.875 C11.28333671 294.1903532 8.13463744 295.51703479 4.99023438 296.85546875 C-8.47501731 302.47552658 -21.18845698 304.57278009 -35.375 300 C-52.08340811 293.09744705 -65.2304397 280.22110064 -76 266 C-76.41427246 265.46600586 -76.82854492 264.93201172 -77.25537109 264.38183594 C-89.0795187 249.12119967 -98.84291352 232.48365522 -107 215 C-107.38824951 214.17395264 -107.77649902 213.34790527 -108.17651367 212.49682617 C-129.07364333 167.38524301 -138.40656933 113.94847615 -122 66 C-117.43133223 53.96895125 -111.40875584 43.721795 -103 34 C-102.22398437 33.08605469 -101.44796875 32.17210937 -100.6484375 31.23046875 C-89.50427146 18.45871832 -75.84397287 8.2091245 -60 2 C-59.12085938 1.63261719 -58.24171875 1.26523438 -57.3359375 0.88671875 C-38.99003572 -6.38291092 -18.59028189 -5.85487039 0 0 Z " fill="#FEFEFE" transform="translate(313,250)"/>
<path d="M0 0 C0.38705001 20.94370621 0.38705001 20.94370621 -2 29 C-2.309375 30.07507813 -2.309375 30.07507813 -2.625 31.171875 C-7.38734638 46.43303044 -14.51643698 58.97090283 -25 71 C-25.52980469 71.62648438 -26.05960937 72.25296875 -26.60546875 72.8984375 C-37.76253048 85.11671075 -55.54542767 94.53084176 -72 96 C-75.33538723 96.06877087 -78.66458588 96.06039985 -82 96 C-86.60105714 75.53838815 -77.88331065 57.19034041 -67.5625 40.125 C-54.0662443 19.75847838 -32.24712763 6.19522501 -8.71875 0.4453125 C-5.76992078 -0.03768539 -2.98297818 -0.07896119 0 0 Z " fill="#FCFCFC" transform="translate(431,152)"/>
</svg>
