<?xml version="1.0" encoding="UTF-8"?>
<svg version="1.1" xmlns="http://www.w3.org/2000/svg" width="480" height="452">
<path d="M0 0 C1.25034906 -0.00453111 2.50069813 -0.00906223 3.78893656 -0.01373065 C7.22964291 -0.02586892 10.67025136 -0.02571112 14.11097419 -0.02334189 C17.83373793 -0.02293138 21.55647126 -0.03399526 25.27922058 -0.04345703 C32.56228876 -0.06001832 39.84532455 -0.0655644 47.12840999 -0.06668179 C53.05429456 -0.06763473 58.98016852 -0.07175726 64.90604973 -0.07808304 C81.73850477 -0.09568336 98.57093439 -0.10492398 115.4033987 -0.10342209 C116.30945788 -0.10334218 117.21551707 -0.10326227 118.14903259 -0.10317993 C119.50979754 -0.10305729 119.50979754 -0.10305729 120.89805268 -0.10293217 C135.58688522 -0.10211996 150.27561504 -0.12124441 164.96441788 -0.14945666 C180.07764618 -0.178253 195.1908245 -0.19199321 210.3040809 -0.19026911 C218.77654673 -0.18960746 227.24890492 -0.19500033 235.7213459 -0.21662521 C242.93733286 -0.23492626 250.1531634 -0.23911183 257.36916364 -0.22560637 C261.043388 -0.21912091 264.71731308 -0.21879681 268.3915081 -0.23631287 C302.2460154 -0.38728452 328.90886802 6.50344606 353.83091736 30.64242554 C367.45482553 44.61075835 380.23643784 66.25333992 380.27763844 86.38541985 C380.28209628 87.39979272 380.28655412 88.41416559 380.29114705 89.45927703 C380.29087051 91.12048196 380.29087051 91.12048196 380.29058838 92.81524658 C380.29426507 93.99724896 380.29794176 95.17925133 380.30172986 96.39707196 C380.31083861 99.67468027 380.31546244 102.95225916 380.31811917 106.22987795 C380.32203014 109.76658686 380.33160808 113.30328138 380.34033203 116.83998108 C380.36007657 125.3808667 380.37016121 133.92175347 380.37905982 142.4626562 C380.383447 146.48933755 380.38881278 150.51601759 380.39404869 154.54269791 C380.41106081 167.93711766 380.42555273 181.3315366 380.43279743 194.7259655 C380.43470719 198.2003975 380.43662754 201.6748295 380.43858337 205.14926147 C380.43906711 206.01276821 380.43955085 206.87627494 380.44004925 207.76594855 C380.44834115 221.73940175 380.4736639 235.71276911 380.50616405 249.68618487 C380.53929323 264.0477449 380.55725157 278.40926141 380.56044167 292.77085984 C380.56260162 300.82805652 380.57127414 308.88512812 380.59690285 316.94228745 C380.61869026 323.80752661 380.62662108 330.6726103 380.61693607 337.53788011 C380.61241415 341.03550495 380.61415287 344.53280958 380.63369751 348.03038979 C380.75983249 375.01052482 380.75983249 375.01052482 376.14341736 387.26742554 C375.82377675 388.12529097 375.50413614 388.98315639 375.17480946 389.86701775 C374.37410358 391.90848086 373.48497821 393.86211323 372.51841736 395.82992554 C372.1770575 396.53407593 371.83569763 397.23822632 371.48399353 397.9637146 C359.64453493 421.57347298 338.99571876 439.88534647 313.98985291 448.55404663 C307.4610065 450.7095766 301.48400687 452.38878578 294.58813667 452.40164661 C293.47622872 452.40610446 292.36432078 452.4105623 291.21871865 452.41515523 C290.00230214 452.41497087 288.78588564 452.41478651 287.53260803 452.41459656 C285.58809527 452.42011159 285.58809527 452.42011159 283.60429943 452.42573804 C280.00745178 452.43573784 276.41062081 452.43947159 272.81376123 452.44212735 C268.93349152 452.44603652 265.05323494 452.45561457 261.17297363 452.46434021 C251.80152775 452.48408949 242.43008081 452.49416984 233.05861932 452.503068 C228.64142843 452.50745427 224.22423874 452.51282028 219.8070488 452.51805687 C205.11558087 452.53506921 190.42411367 452.54956154 175.73263741 452.55680561 C171.92132186 452.5587154 168.11000632 452.56063574 164.2986908 452.56259155 C162.87782487 452.56331716 162.87782487 452.56331716 161.42825459 452.56405743 C146.09683449 452.57235083 130.76549259 452.59767606 115.4341066 452.63017223 C99.68037144 452.66329025 83.92667595 452.68125874 68.1729058 452.68444985 C59.33323497 452.68661079 50.4936781 452.69529804 41.65404129 452.72091103 C34.12272582 452.74268309 26.591552 452.75063668 19.06020863 452.74094424 C15.22234984 452.73641801 11.38478288 452.73818694 7.54696465 452.75770569 C-21.96309437 452.89955094 -21.96309437 452.89955094 -33.85658264 448.26742554 C-34.71113478 447.94778493 -35.56568691 447.62814432 -36.44613457 447.29881763 C-38.4925157 446.50001688 -40.44782761 445.6106774 -42.41908264 444.64242554 C-43.12323303 444.30106567 -43.82738342 443.95970581 -44.5528717 443.60800171 C-68.77431103 431.46180675 -87.07200587 410.1942319 -95.73158264 384.51742554 C-98.98119224 374.56407585 -100.15502905 364.90279893 -100.12400818 354.47383118 C-100.12853929 353.33782158 -100.1330704 352.20181198 -100.13773882 351.03137785 C-100.1503268 347.25186392 -100.14876605 343.47249513 -100.14710999 339.69296265 C-100.15201623 336.97180647 -100.15984939 334.25066026 -100.16746521 331.5295105 C-100.18401698 324.9202189 -100.18957214 318.310963 -100.19068997 311.7016524 C-100.19164338 306.32305959 -100.19576828 300.94447847 -100.20209122 295.56588936 C-100.21968913 280.28288457 -100.22893257 264.99990777 -100.22743027 249.71689277 C-100.22735036 248.89446946 -100.22727044 248.07204615 -100.22718811 247.22470093 C-100.22710635 246.40126151 -100.22702459 245.57782209 -100.22694035 244.72942997 C-100.22612826 231.39856348 -100.24525028 218.0678102 -100.27346484 204.73697644 C-100.30227374 191.01592268 -100.31600069 177.29492398 -100.31427729 163.57383925 C-100.31361606 155.88384787 -100.31899023 148.19397511 -100.34063339 140.50401115 C-100.35895114 133.95409934 -100.36310664 127.4043599 -100.34961455 120.85443341 C-100.34313709 117.52036811 -100.3449994 114.18689883 -100.36032104 110.85282326 C-100.50178435 77.91583516 -92.87337533 51.7305493 -69.48158264 27.57992554 C-50.67636173 9.23839501 -26.07643364 -0.07021728 0 0 Z " fill="#F3F3F3" transform="translate(99.85658264160156,-0.267425537109375)"/>
<path d="M0 0 C1.25034906 -0.00453111 2.50069813 -0.00906223 3.78893656 -0.01373065 C7.22964291 -0.02586892 10.67025136 -0.02571112 14.11097419 -0.02334189 C17.83373793 -0.02293138 21.55647126 -0.03399526 25.27922058 -0.04345703 C32.56228876 -0.06001832 39.84532455 -0.0655644 47.12840999 -0.06668179 C53.05429456 -0.06763473 58.98016852 -0.07175726 64.90604973 -0.07808304 C81.73850477 -0.09568336 98.57093439 -0.10492398 115.4033987 -0.10342209 C116.30945788 -0.10334218 117.21551707 -0.10326227 118.14903259 -0.10317993 C119.50979754 -0.10305729 119.50979754 -0.10305729 120.89805268 -0.10293217 C135.58688522 -0.10211996 150.27561504 -0.12124441 164.96441788 -0.14945666 C180.07764618 -0.178253 195.1908245 -0.19199321 210.3040809 -0.19026911 C218.77654673 -0.18960746 227.24890492 -0.19500033 235.7213459 -0.21662521 C242.93733286 -0.23492626 250.1531634 -0.23911183 257.36916364 -0.22560637 C261.043388 -0.21912091 264.71731308 -0.21879681 268.3915081 -0.23631287 C302.2460154 -0.38728452 328.90886802 6.50344606 353.83091736 30.64242554 C377.75672239 55.17309643 380.14341736 80.49616371 380.14341736 114.26742554 C221.74341736 114.26742554 63.34341736 114.26742554 -99.85658264 114.26742554 C-99.85658264 78.20913544 -94.54450605 53.45589159 -69.48158264 27.57992554 C-50.67636173 9.23839501 -26.07643364 -0.07021728 0 0 Z " fill="#F3423D" transform="translate(99.85658264160156,-0.267425537109375)"/>
<path d="M0 0 C0.89074219 0.0309375 1.78148437 0.061875 2.69921875 0.09375 C9.92838861 0.50625613 16.27587451 2.37087639 23 5 C23.72058594 5.27585938 24.44117188 5.55171875 25.18359375 5.8359375 C34.21884594 9.79908635 42.81052272 18.07288071 47.125 26.9375 C47.43695313 27.56527344 47.74890625 28.19304687 48.0703125 28.83984375 C52.45216085 39.02119726 52.6792309 50.55023179 48.9375 61 C43.62316197 72.90530476 35.46290155 80.54762752 23.375 85.4375 C21.92158658 85.97190893 20.46498004 86.49816641 19 87 C19 87.33 19 87.66 19 88 C19.90621094 88.23074219 20.81242187 88.46148437 21.74609375 88.69921875 C36.10853898 92.5444025 46.95349734 98.19314221 54.7734375 111.27734375 C59.83044327 122.50260815 60.06689434 137.66866316 55.9375 149.1875 C49.39483125 163.51906011 37.60322865 173.45359884 23 179 C3.293522 185.62201488 -18.36090402 184.48619333 -37.20703125 175.46484375 C-49.57951184 168.63274441 -58.36657347 158.92708395 -62.54296875 145.25 C-63.31443964 141.45198947 -63.18396243 137.86321105 -63 134 C-57.72 134 -52.44 134 -47 134 C-46.608125 135.65 -46.21625 137.3 -45.8125 139 C-43.00348704 149.14365792 -37.59776035 156.03505022 -28.54296875 161.4765625 C-15.9039136 168.11643479 -0.42850257 169.50080349 13.34936523 165.51269531 C23.12902799 162.23145201 31.23461525 156.66997099 37 148 C41.43070148 138.9158458 41.74150407 128.06228122 38.96875 118.41015625 C34.53335247 108.63996114 27.96160228 103.99300236 18.1875 100.125 C11.98218923 97.88604677 6.77352651 96.83618074 0.171875 96.68359375 C-0.57713074 96.66281265 -1.32613647 96.64203156 -2.09783936 96.62062073 C-4.48180288 96.55542912 -6.86587312 96.49638217 -9.25 96.4375 C-10.86980254 96.39428584 -12.48959443 96.35067063 -14.109375 96.30664062 C-18.07280905 96.19902689 -22.03632834 96.09972836 -26 96 C-26 91.05 -26 86.1 -26 81 C-22.92558594 80.94392578 -22.92558594 80.94392578 -19.7890625 80.88671875 C-17.76999546 80.83798265 -15.75092963 80.78914278 -13.73193359 80.73754883 C-12.34532345 80.70461081 -10.95858923 80.6764856 -9.57177734 80.65356445 C0.30518139 80.48597707 10.13985119 80.21065583 18.5 74.3125 C21.82890855 72 21.82890855 72 24 72 C24.2784375 71.42121094 24.556875 70.84242188 24.84375 70.24609375 C26.30776388 67.40214787 28.03551686 64.77480189 29.78125 62.09765625 C34.11865467 54.63231552 34.35861911 45.62159165 32.34765625 37.30078125 C28.47067651 27.76640618 21.98609831 22.47519231 12.8671875 18.12890625 C3.25770872 14.34533763 -10.44485047 14.32263919 -20.1875 17.625 C-29.74025928 21.83117618 -36.70782959 28.54019633 -41.22265625 37.96875 C-42.35084026 40.91676851 -42.68110088 43.87478861 -43 47 C-44 48 -44 48 -47.59765625 48.09765625 C-49.08596867 48.0909822 -50.57426432 48.07902183 -52.0625 48.0625 C-53.20041992 48.05573242 -53.20041992 48.05573242 -54.36132812 48.04882812 C-56.24091871 48.0370068 -58.12046899 48.01907078 -60 48 C-58.8557252 33.94176673 -53.91020402 22.69068099 -43.484375 13.0546875 C-31.17691158 2.87587341 -15.79296614 -0.94710442 0 0 Z " fill="#444040" transform="translate(190,184)"/>
<path d="M0 0 C0 58.74 0 117.48 0 178 C-5.61 178 -11.22 178 -17 178 C-17.33 125.86 -17.66 73.72 -18 20 C-23.28 23.63 -28.56 27.26 -34 31 C-38.33224845 33.96851646 -42.66462479 36.93623556 -47.00512695 39.89257812 C-48.23426409 40.73070919 -49.46241907 41.57028205 -50.68969727 42.41113281 C-52.50569892 43.65506675 -54.3247477 44.8944201 -56.14453125 46.1328125 C-57.72778198 47.21393311 -57.72778198 47.21393311 -59.34301758 48.31689453 C-62 50 -62 50 -65 51 C-66.37954283 44.91747024 -67.35658325 38.94968242 -65 33 C-59.90468376 27.18368645 -52.66433367 23.56982489 -46.02832031 19.77587891 C-41.37340614 17.04612675 -36.98198749 13.96611734 -32.5625 10.875 C-30.36106741 9.3690756 -28.15914705 7.86634449 -25.93798828 6.38964844 C-23.99837973 5.07621028 -23.99837973 5.07621028 -22.51123047 3.52441406 C-15.79949579 -2.7699077 -10.23891531 0 0 0 Z " fill="#484444" transform="translate(336,186)"/>
<path d="M0 0 C0.01458252 0.72590332 0.02916504 1.45180664 0.04418945 2.19970703 C0.11894859 5.50865732 0.2155179 8.81662952 0.3125 12.125 C0.33505859 13.26710938 0.35761719 14.40921875 0.38085938 15.5859375 C0.56135516 23.73859561 0.56135516 23.73859561 4 31 C7.49124017 33.32749345 8.89222251 33.50299316 13 33 C15.84780619 30.76793569 16.84997666 29.45007001 18 26 C18.14986411 24.0093556 18.24828038 22.01464609 18.31640625 20.01953125 C18.37924805 18.27446289 18.37924805 18.27446289 18.44335938 16.49414062 C18.48267578 15.27919922 18.52199219 14.06425781 18.5625 12.8125 C18.62727539 10.97268555 18.62727539 10.97268555 18.69335938 9.09570312 C18.7995309 6.06391619 18.90157952 3.03204685 19 0 C26.19011647 2.27383924 30.46287154 6.06756243 34.4375 12.5 C37.50211372 19.34874544 37.21440882 27.90002685 35.1171875 34.98046875 C31.45650092 42.9927662 25.56585288 48.03483509 17.44921875 51.30078125 C10.76648057 53.2086124 4.90333063 52.76042345 -1.375 49.8125 C-7.74516167 46.21984958 -14.20811201 40.31895865 -16.6171875 33.16796875 C-18.06652235 24.96000098 -17.73488057 17.4638933 -13.56640625 10.16015625 C-10.73032389 6.24905015 -5.11410864 0 0 0 Z " fill="#BA312E" transform="translate(365,26)"/>
<path d="M0 0 C0.01981934 0.76143311 0.03963867 1.52286621 0.06005859 2.30737305 C0.15549922 5.76775472 0.26510212 9.22754855 0.375 12.6875 C0.4059375 13.88568359 0.436875 15.08386719 0.46875 16.31835938 C0.50742188 17.47529297 0.54609375 18.63222656 0.5859375 19.82421875 C0.63306885 21.41882935 0.63306885 21.41882935 0.68115234 23.0456543 C1.0099135 26.09185551 1.59106888 28.2842986 3 31 C6.63251872 33.42167915 8.00339617 33.18273343 12.12890625 32.546875 C14.19785155 32.09987455 14.19785155 32.09987455 15.9375 30.125 C17.79944575 26.4011085 18.17027473 23.35083979 18.31640625 19.23828125 C18.37924805 17.56088867 18.37924805 17.56088867 18.44335938 15.84960938 C18.48267578 14.68236328 18.52199219 13.51511719 18.5625 12.3125 C18.62727539 10.54422852 18.62727539 10.54422852 18.69335938 8.74023438 C18.79951176 5.82694117 18.90156242 2.91356243 19 0 C26.8060315 3.03674444 31.59904991 7.45341103 35.12109375 15.1484375 C37.05360211 21.4183535 37.21651163 28.69127065 34.8125 34.875 C34.214375 35.90625 33.61625 36.9375 33 38 C32.6596875 38.59296875 32.319375 39.1859375 31.96875 39.796875 C28.17653 45.79268229 23.09665923 48.8176392 16.5625 51.3125 C8.38482599 52.89064762 2.23480234 52.33575034 -5 48 C-11.05924872 43.85306737 -15.33023141 39.27392942 -17 32 C-17.84721962 23.80138516 -18.28209353 15.74506405 -13 9 C-5.27290837 0 -5.27290837 0 0 0 Z " fill="#BA312E" transform="translate(96,26)"/>
<path d="M0 0 C5.94 0 11.88 0 18 0 C18.07424403 7.29571311 18.12864747 14.5912055 18.16479492 21.88720703 C18.17986662 24.3683658 18.20032746 26.84949799 18.22631836 29.33056641 C18.26277167 32.90013189 18.27974292 36.46934461 18.29296875 40.0390625 C18.30845261 41.14553131 18.32393646 42.25200012 18.33988953 43.39199829 C18.34110367 48.96792243 18.32260642 53.26758208 15 58 C11.48746854 60.34168764 10.13530644 60.49623677 6 60 C3.30009338 58.20006226 1.4581135 56.916227 0 54 C-0.09061856 52.27393547 -0.11754501 50.54435493 -0.11352539 48.81591797 C-0.11344986 47.73494843 -0.11337433 46.65397888 -0.11329651 45.54025269 C-0.10813522 44.36939117 -0.10297394 43.19852966 -0.09765625 41.9921875 C-0.0962413 40.79643097 -0.09482635 39.60067444 -0.09336853 38.36868286 C-0.08775663 34.53743013 -0.07520208 30.70623516 -0.0625 26.875 C-0.05748653 24.28255293 -0.05292336 21.69010494 -0.04882812 19.09765625 C-0.03778333 12.73174847 -0.02051068 6.36588404 0 0 Z " fill="#F2EFEF" transform="translate(366,0)"/>
<path d="M0 0 C5.94 0 11.88 0 18 0 C18.09888873 7.59883832 18.17147992 15.19730192 18.21972656 22.79663086 C18.23983972 25.38165817 18.26713386 27.96664 18.30175781 30.55151367 C18.35028654 34.26752955 18.37297235 37.98294378 18.390625 41.69921875 C18.41127014 42.85459641 18.43191528 44.00997406 18.45318604 45.20036316 C18.45543083 53.23034586 18.45543083 53.23034586 16.09838867 57.21362305 C13.31043593 59.58703203 11.5392735 60.02030337 7.96875 60.2734375 C6 60 6 60 3.0625 57.75 C0.25352001 54.00469335 -0.12454289 51.43621284 -0.11352539 46.88598633 C-0.11344986 45.84513382 -0.11337433 44.80428131 -0.11329651 43.73188782 C-0.10813522 42.60993515 -0.10297394 41.48798248 -0.09765625 40.33203125 C-0.0962413 39.18208176 -0.09482635 38.03213226 -0.09336853 36.84733582 C-0.08776429 33.16903092 -0.07521104 29.49078655 -0.0625 25.8125 C-0.05748555 23.32096442 -0.05292255 20.82942789 -0.04882812 18.33789062 C-0.03779347 12.22523704 -0.02052595 6.11262879 0 0 Z " fill="#F2EFEF" transform="translate(96,0)"/>
</svg>
