<?xml version="1.0" encoding="UTF-8"?>
<svg version="1.1" xmlns="http://www.w3.org/2000/svg" width="340" height="320">
<path d="M0 0 C1.25135186 -0.00679667 1.25135186 -0.00679667 2.52798355 -0.01373065 C5.29808156 -0.02629895 8.06798105 -0.02475919 10.83810425 -0.02310181 C12.83477529 -0.02909189 14.83144402 -0.03589854 16.82810974 -0.04345703 C22.23544876 -0.06107781 27.64272441 -0.06581083 33.05008936 -0.0670886 C36.43446029 -0.06851327 39.81881527 -0.07278889 43.20318222 -0.07808304 C55.02762621 -0.0965721 66.85202519 -0.10475527 78.67648315 -0.10317993 C89.66967917 -0.10197965 100.6626785 -0.1230628 111.65582478 -0.15466726 C121.11689359 -0.18089027 130.57789841 -0.19154467 140.03900325 -0.19026911 C145.67941452 -0.18976115 151.31965097 -0.19535234 156.96002579 -0.21662521 C162.27072049 -0.23610865 167.58107548 -0.23606336 172.89178276 -0.22159195 C174.83023899 -0.21951507 176.76871705 -0.22413708 178.70713615 -0.23631287 C190.24683775 -0.30404593 200.24305987 0.58514934 211.23605347 4.26742554 C212.17851488 4.57834955 213.1209763 4.88927357 214.09199715 5.20961952 C232.56311844 11.60924314 248.66156101 27.97311023 257.23605347 45.26742554 C259.08748656 49.88099666 260.73712524 54.52579599 262.23605347 59.26742554 C262.41824023 59.83059258 262.600427 60.39375963 262.78813457 60.97399235 C263.44292338 64.32664032 263.38407421 67.66150854 263.38322449 71.06391907 C263.38690118 71.85445712 263.39057786 72.64499518 263.39436597 73.45948893 C263.4053889 76.11153883 263.40924435 78.76354953 263.41305542 81.4156189 C263.41932132 83.31627527 263.42596824 85.21693042 263.43296814 87.11758423 C263.45400298 93.36413725 263.46437278 99.61069049 263.47433472 105.85726929 C263.47838306 108.01025467 263.4825 110.16323993 263.4866848 112.31622505 C263.5057384 122.43592433 263.5199668 132.55561633 263.52829677 142.6753301 C263.53805794 154.34022034 263.56434755 166.00492026 263.60479766 177.66974348 C263.63501534 186.69500731 263.64977116 195.72021678 263.65307778 204.74553019 C263.6554226 210.131103 263.66430847 215.51647254 263.68953896 220.90199089 C263.71292239 225.97539836 263.71701176 231.04847021 263.70677757 236.12191772 C263.70628453 237.97575056 263.71253611 239.82960048 263.72633362 241.68338203 C263.88690273 264.55182207 256.24290777 282.46924413 240.61105347 299.39242554 C227.68822081 311.65123913 210.6556209 320.41865763 192.68028259 320.41459656 C191.80807349 320.41827325 190.93586439 320.42194993 190.03722471 320.42573804 C187.10878473 320.43676826 184.18038025 320.44061766 181.25192261 320.44442749 C179.15422452 320.45069281 177.05652755 320.45733967 174.95883179 320.46434021 C168.06296562 320.48538081 161.16709924 320.49574492 154.27120972 320.50570679 C151.8953443 320.50975482 149.519479 320.51387175 147.14361382 320.51805687 C135.9773998 320.53711119 124.81119238 320.55133982 113.64496523 320.55966884 C100.76887222 320.56943235 87.89295152 320.59572784 75.0169192 320.63616973 C65.05748065 320.66637363 55.09809136 320.68114191 45.13860792 320.68444985 C39.1941297 320.68679611 33.24983552 320.695701 27.30540657 320.72091103 C21.70671177 320.74427039 16.10832113 320.74839331 10.50959015 320.73814964 C8.46225152 320.73765603 6.41489752 320.74392459 4.36760521 320.75770569 C-19.24348173 320.90765905 -37.25327127 313.9324067 -54.88894653 297.64242554 C-71.61200832 280.01353124 -77.07024145 259.20563477 -77.05447388 235.50131226 C-77.0604653 233.70168277 -77.06727225 231.90205584 -77.0748291 230.10243225 C-77.09243672 225.23226479 -77.09718235 220.36216771 -77.09846067 215.49197149 C-77.09988613 212.44261928 -77.10416326 209.39328473 -77.10945511 206.34393692 C-77.12794012 195.68658572 -77.13612789 185.02928442 -77.134552 174.37191772 C-77.13335196 164.46934411 -77.15443127 154.56698894 -77.18603933 144.66447055 C-77.21227742 136.13757559 -77.2229161 127.61075162 -77.22164118 119.08381665 C-77.22113364 114.00231112 -77.22670104 108.92099974 -77.24799728 103.83953476 C-77.26750629 99.05412473 -77.26741844 94.26909149 -77.25296402 89.48366737 C-77.25089023 87.73871745 -77.25549029 85.99374315 -77.26768494 84.24883461 C-77.42115908 60.74444713 -70.37530012 40.98738204 -54.11160278 23.57992554 C-39.55880121 9.24505277 -20.64700943 -0.08400979 0 0 Z " fill="#1D1D1D" transform="translate(76.76394653320313,-0.267425537109375)"/>
<path d="M0 0 C7.81789932 1.11684276 7.81789932 1.11684276 12.25 3.3125 C18.81773094 6.43105524 25.55361157 8.80656492 32.41796875 11.18359375 C38.89087538 13.44946401 45.13842423 15.90001076 51.34765625 18.80859375 C58.67014661 22.09778309 66.37996275 24.50162713 74 27 C74 32.94 74 38.88 74 45 C65.5 47.75 65.5 47.75 62.87304688 48.58886719 C58.37863227 50.06595268 54.26792724 51.81760198 50.07666016 54.00048828 C46.16790989 55.88179837 42.0447694 57.18515646 37.9375 58.5625 C32.17938782 60.51066849 26.56761176 62.56003713 21 65 C17.73561361 66.26115281 14.46077126 67.49128375 11.18359375 68.71875 C7.94271654 69.97052127 7.94271654 69.97052127 4.72265625 71.65625 C2 73 2 73 0 73 C0 66.73 0 60.46 0 54 C11.62191344 49.64178246 23.27290401 45.50740274 35.07617188 41.66601562 C36.05005859 41.34697266 37.02394531 41.02792969 38.02734375 40.69921875 C38.89093506 40.41908936 39.75452637 40.13895996 40.64428711 39.8503418 C43.00513625 39.05738133 43.00513625 39.05738133 45.12329102 37.89379883 C47 37 47 37 50 37 C50 36.34 50 35.68 50 35 C49.43152344 34.89042969 48.86304688 34.78085938 48.27734375 34.66796875 C43.18103153 33.6214806 38.78033594 32.09663857 34 30 C32.33929982 29.48052652 30.67204993 28.98169161 29 28.5 C24.83617641 27.29600282 20.98613604 25.70834402 17 24 C14.55233924 23.23709275 12.09614158 22.52656544 9.625 21.84375 C6.33601973 20.78657777 3.17537729 19.36087598 0 18 C0 12.06 0 6.12 0 0 Z " fill="#EDEDED" transform="translate(42,50)"/>
<path d="M0 0 C24.09 0 48.18 0 73 0 C73 5.28 73 10.56 73 16 C48.91 16 24.82 16 0 16 C0 10.72 0 5.44 0 0 Z " fill="#E3E3E3" transform="translate(117,129)"/>
</svg>
