<?xml version="1.0" encoding="UTF-8"?>
<svg version="1.1" xmlns="http://www.w3.org/2000/svg" width="780" height="780">
<path d="M0 0 C6.25097635 0.01141498 12.50188539 -0.00619902 18.75284791 -0.01989961 C30.26332807 -0.04075474 41.77362352 -0.03908001 53.28410245 -0.02534227 C63.92188155 -0.01271012 74.55961241 -0.00950613 85.19739747 -0.01545548 C85.90601945 -0.01583741 86.61464144 -0.01621934 87.34473681 -0.01661283 C90.22205082 -0.0181698 93.0993648 -0.01976183 95.97667876 -0.02141165 C122.90820251 -0.0366693 149.83964251 -0.02289887 176.77115332 0.00407283 C200.64106786 0.02779672 224.51084897 0.02567341 248.38076234 0.00176787 C275.26645235 -0.02506864 302.15206849 -0.03558676 329.03777003 -0.02017081 C331.90951147 -0.01856748 334.78125293 -0.01700326 337.65299439 -0.01545548 C338.35996881 -0.0150601 339.06694322 -0.01466471 339.7953411 -0.01425734 C350.42030642 -0.00859605 361.04521794 -0.01517238 371.67017579 -0.02785325 C383.76449419 -0.0422168 395.85862114 -0.03795732 407.95293391 -0.01144953 C414.11310596 0.00161104 420.27300867 0.00697459 426.43317819 -0.00969529 C478.32804164 -0.13820324 521.75559295 7.97547448 559.92519593 45.65362334 C575.00680313 60.71234494 586.19842921 79.21730383 593.73769593 99.09112334 C594.00356507 99.78053008 594.26943421 100.46993682 594.54335999 101.18023467 C600.21492951 116.93756695 601.51149626 132.15947527 601.43985963 148.75977874 C601.44519566 150.94237133 601.45226738 153.12496025 601.46090668 155.30754226 C601.47942083 161.25784383 601.47326788 167.2078946 601.46275365 173.15820611 C601.45572958 179.59395598 601.47178388 186.02965598 601.48475099 192.46539092 C601.50587971 204.32891469 601.50722347 216.19236216 601.49953453 228.05589913 C601.49244385 239.01993792 601.49242159 249.9839474 601.49939752 260.94798636 C601.50030887 262.42239454 601.50121964 263.89680272 601.5021298 265.3712109 C601.50351303 267.59339523 601.50490413 269.81557955 601.50631594 272.03776387 C601.51928412 292.67952473 601.52442678 313.32127583 601.51278234 333.96303821 C601.51234436 334.74005341 601.51190639 335.51706861 601.51145515 336.31762973 C601.50784884 342.62631311 601.50401381 348.93499635 601.50016422 355.24367958 C601.48532054 379.84415448 601.49409501 404.44451831 601.52211976 429.04498076 C601.55359537 456.72713557 601.56850255 484.40922467 601.55831975 512.0913977 C601.55728308 515.04686946 601.55629584 518.00234124 601.55533624 520.95781302 C601.55496291 522.0492636 601.55496291 522.0492636 601.55458204 523.16276367 C601.55115195 534.11347383 601.56040989 545.06412567 601.57610726 556.01482368 C601.59393282 568.47831855 601.59345767 580.94166213 601.57075561 593.40515152 C601.55964844 599.75718138 601.55637102 606.10894588 601.57505631 612.46096396 C601.59197741 618.28850169 601.58535349 624.11554498 601.56083953 629.94305136 C601.55599381 632.03842953 601.55936774 634.13384848 601.57232697 636.22919217 C601.67328534 653.83953067 599.11116833 670.73291023 592.11269593 687.02862334 C591.60077699 688.25500518 591.60077699 688.25500518 591.07851624 689.50616241 C575.28942308 726.60835653 545.62339595 756.19943084 508.26113343 771.62627959 C506.67317707 772.24777258 505.08207085 772.86128652 503.48769593 773.46612334 C502.45358582 773.86492705 502.45358582 773.86492705 501.3985846 774.27178741 C485.64125232 779.94335692 470.41934401 781.23992367 453.81904054 781.16828704 C451.63644794 781.17362307 449.45385903 781.18069479 447.27127701 781.18933409 C441.32097545 781.20784824 435.37092467 781.20169529 429.42061317 781.19118106 C422.9848633 781.18415699 416.5491633 781.20021129 410.11342835 781.2131784 C398.24990459 781.23430712 386.38645712 781.23565088 374.52292015 781.22796194 C363.55888135 781.22087126 352.59487188 781.220849 341.63083291 781.22782493 C340.15642473 781.22873628 338.68201655 781.22964705 337.20760838 781.23055721 C334.98542405 781.23194044 332.76323972 781.23333154 330.54105541 781.23474335 C309.89929455 781.24771153 289.25754345 781.25285419 268.61578107 781.24120975 C267.83876587 781.24077177 267.06175066 781.2403338 266.26118955 781.23988256 C259.95250617 781.23627625 253.64382293 781.23244122 247.33513969 781.22859163 C222.7346648 781.21374795 198.13430096 781.22252242 173.53383851 781.25054717 C145.8516837 781.28202278 118.1695946 781.29692996 90.48742157 781.28674716 C87.53194981 781.28571049 84.57647804 781.28472325 81.62100625 781.28376365 C80.52955568 781.28339032 80.52955568 781.28339032 79.4160556 781.28300945 C68.46534545 781.27957936 57.51469361 781.2888373 46.5639956 781.30453467 C34.10050073 781.32236023 21.63715714 781.32188508 9.17366775 781.29918302 C2.82163789 781.28807585 -3.5301266 781.28479843 -9.88214469 781.30348372 C-15.70968242 781.32040482 -21.53672571 781.3137809 -27.36423209 781.28926694 C-29.45961025 781.28442122 -31.5550292 781.28779515 -33.6503729 781.30075438 C-51.26071139 781.40171275 -68.15409096 778.83959574 -84.44980407 771.84112334 C-85.26739196 771.49984405 -86.08497985 771.15856475 -86.92734313 770.80694366 C-124.80495808 754.68786484 -154.39383048 724.27004487 -169.87988293 686.09708142 C-180.4187454 658.84478738 -179.80624403 631.33507985 -179.72842741 602.57881927 C-179.71701243 596.32784293 -179.73462643 590.07693388 -179.74832702 583.82597136 C-179.76918215 572.31549121 -179.76750742 560.80519576 -179.75376968 549.29471682 C-179.74113753 538.65693773 -179.73793354 528.01920687 -179.74388289 517.3814218 C-179.74426482 516.67279982 -179.74464675 515.96417784 -179.74504024 515.23408246 C-179.74659721 512.35676846 -179.74818924 509.47945447 -179.74983906 506.60214052 C-179.76509671 479.67061676 -179.75132628 452.73917676 -179.72435458 425.80766595 C-179.70063069 401.93775142 -179.702754 378.06797031 -179.72665954 354.19805694 C-179.75349605 327.31236693 -179.76401417 300.42675079 -179.74859822 273.54104924 C-179.74699489 270.6693078 -179.74543067 267.79756635 -179.74388289 264.92582488 C-179.74348751 264.21885047 -179.74309212 263.51187605 -179.74268475 262.78347817 C-179.73702346 252.15851286 -179.74359979 241.53360133 -179.75628066 230.90864348 C-179.77064421 218.81432508 -179.76638473 206.72019813 -179.73987694 194.62588537 C-179.72681637 188.46571332 -179.72145282 182.30581061 -179.7381227 176.14564109 C-179.86663065 124.25077764 -171.75295293 80.82322632 -134.07480407 42.65362334 C-96.63719794 5.15912116 -50.41018793 -0.13641379 0 0 Z " fill="#000000" transform="translate(179.0748040676117,-0.6536233425140381)"/>
<path d="M0 0 C1.1142334 0.20318848 2.2284668 0.40637695 3.37646484 0.61572266 C14.51108876 2.682493 25.37012778 5.03526058 36 9 C37.40914917 9.4665942 38.8194279 9.92978311 40.23046875 10.390625 C85.4061297 25.37604111 132.41838835 52.98260884 163.28125 89.97265625 C165.33543452 92.39566027 167.51299612 94.68442862 169.6875 97 C187.81264475 116.91290561 202.53122808 140.70818912 214 165 C214.33386719 165.70495605 214.66773438 166.40991211 215.01171875 167.13623047 C228.43009271 195.72739222 236.35424925 225.67470811 240 257 C240.08439331 257.71832504 240.16878662 258.43665009 240.2557373 259.17674255 C240.93924322 265.40223498 241.1738428 271.55618053 241.203125 277.81640625 C241.21018463 278.82245911 241.21724426 279.82851196 241.22451782 280.86505127 C241.45247662 322.88964019 241.45247662 322.88964019 238 341 C237.67805664 342.71219727 237.67805664 342.71219727 237.34960938 344.45898438 C234.7018644 358.2082937 231.73335842 371.80729707 227 385 C226.61086426 386.11906738 226.61086426 386.11906738 226.21386719 387.26074219 C212.19657611 427.30783561 190.4041883 462.37564889 161.5234375 493.2890625 C159.0710278 495.92369459 156.69004102 498.61038 154.3125 501.3125 C151.07051468 504.92302361 147.71041064 508.18518167 144 511.30859375 C141.94438856 513.04703077 139.97878371 514.86237184 138 516.6875 C126.29320102 527.07127032 113.25877056 535.74962211 100 544 C99.3292041 544.42522949 98.6584082 544.85045898 97.96728516 545.28857422 C86.77611211 552.35882952 75.10858905 557.75767652 62.88232422 562.80078125 C60.06528418 563.97283789 57.26855777 565.18476393 54.47265625 566.40625 C36.94532421 573.93895068 36.94532421 573.93895068 29 572 C23.85736693 569.66243951 21.09018467 566.18114171 19 561 C18.45223877 557.76061168 18.45544058 554.58755459 18.48583984 551.30786133 C18.47515221 549.88683609 18.47515221 549.88683609 18.46424866 548.43710327 C18.44501876 545.31853164 18.45324053 542.20064226 18.4609375 539.08203125 C18.45102331 536.901169 18.43907932 534.72031512 18.42520142 532.53947449 C18.39285779 526.80167077 18.38245057 521.06405777 18.37835693 515.32617188 C18.36960093 506.16134477 18.33382742 496.99667447 18.2861824 487.83197594 C18.27368822 484.64596455 18.27434798 481.46015484 18.27645874 478.27412415 C18.23617962 457.49085452 15.75652813 437.88976326 0.38671875 422.37109375 C-0.07089844 421.91863281 -0.52851563 421.46617187 -1 421 C-0.08412109 420.87471924 0.83175781 420.74943848 1.77539062 420.62036133 C25.30927028 417.61561903 25.30927028 417.61561903 48 411 C49.78470703 410.35804688 49.78470703 410.35804688 51.60546875 409.703125 C80.91849604 398.70687873 105.12410291 381.46900913 118.81640625 352.7578125 C121.45994185 346.59828731 123.77264368 340.32023023 126 334 C126.31066406 333.12472656 126.62132812 332.24945313 126.94140625 331.34765625 C132.19760327 315.24883291 133.17482092 298.20925819 133.13037109 281.4140625 C133.12501145 279.00514432 133.13034337 276.59641253 133.13671875 274.1875 C133.1441142 262.84640201 132.77929418 252.2995933 129.4375 241.375 C129.17501465 240.51398682 128.9125293 239.65297363 128.64208984 238.76586914 C124.45631378 225.60727597 118.12505214 211.84713285 108.05859375 202.125 C106.32787234 200.45235649 105.04155831 199.17266235 104 197 C104.25991865 194.36997574 104.94338563 192.26417699 105.9375 189.8203125 C109.21978441 181.10777815 109.43680395 172.42558954 109.4375 163.1875 C109.44059677 162.1646138 109.44059677 162.1646138 109.4437561 161.12106323 C109.43730621 149.2157795 107.91135067 138.27867645 104 127 C103.75846191 126.25089355 103.51692383 125.50178711 103.26806641 124.72998047 C102.6071071 122.78504412 101.81270876 120.88657072 101 119 C84.38114952 113.46038317 62.90913315 124.64855324 48.23925781 131.86523438 C41.59626155 135.23163719 35.10961513 138.84780842 28.98046875 143.08984375 C21.91638764 147.9699545 21.91638764 147.9699545 17.1875 148.125 C15.78299627 147.78390624 14.38799558 147.40304339 13 147 C10.77298284 146.5109404 8.54354534 146.03284179 6.3125 145.5625 C4.52005859 145.16611328 4.52005859 145.16611328 2.69140625 144.76171875 C-2.00016121 143.79361753 -6.70958944 143.08915464 -11.453125 142.4296875 C-14 142 -14 142 -16 141 C-18.06060013 140.77549236 -20.12738287 140.60677191 -22.1953125 140.46484375 C-24.09216797 140.33384277 -24.09216797 140.33384277 -26.02734375 140.20019531 C-27.39317354 140.1117668 -28.75906066 140.02421992 -30.125 139.9375 C-30.8144873 139.89330933 -31.50397461 139.84911865 -32.21435547 139.80358887 C-42.15752819 139.17359185 -52.03422308 138.57888204 -62 139 C-63.02399902 139.03577148 -64.04799805 139.07154297 -65.10302734 139.10839844 C-82.25409006 139.76354847 -98.22878596 141.84873235 -114.9296875 145.66015625 C-116.9531123 146.10682839 -118.97654827 146.5534499 -121 147 C-121.75853271 147.19045898 -122.51706543 147.38091797 -123.29858398 147.57714844 C-128.34748783 148.61389445 -131.03765476 147.33364484 -135.13745117 144.63354492 C-135.85521729 144.1357251 -136.5729834 143.63790527 -137.3125 143.125 C-155.63265546 131.19288162 -180.48684919 117.65976463 -202.8125 117.9375 C-203.85180664 117.94426758 -203.85180664 117.94426758 -204.91210938 117.95117188 C-206.60811068 117.96286844 -208.30406703 117.98080076 -210 118 C-210.10957031 118.61746094 -210.21914062 119.23492187 -210.33203125 119.87109375 C-211.27646625 124.91575874 -212.43611874 129.6888642 -214.21875 134.50390625 C-216.87108052 142.97810225 -217.30709878 150.88065589 -217.25 159.75 C-217.25773438 160.9359375 -217.26546875 162.121875 -217.2734375 163.34375 C-217.25207445 173.12802893 -217.02471706 183.1074358 -212.75 192.0625 C-211.96484375 194.484375 -211.96484375 194.484375 -212 197 C-214.42434134 200.90918292 -217.50233551 204.11514487 -220.62646484 207.45996094 C-237.32842798 226.18658438 -241.18785588 252.87168496 -241.18530273 276.8840332 C-241.18747922 279.16572017 -241.20566778 281.44691432 -241.22460938 283.72851562 C-241.26154886 293.33180807 -240.56482 302.50473301 -239 312 C-238.86891846 312.79639893 -238.73783691 313.59279785 -238.6027832 314.41333008 C-233.26860798 344.7050249 -219.34893906 374.57251652 -193.70092773 392.65600586 C-167.79611666 410.18387554 -139.61426272 416.91137888 -109 421 C-110.97325452 425.06629469 -113.48146062 428.52974799 -116.1484375 432.171875 C-119.93429551 437.95449356 -122.23386802 443.04714438 -123.26293945 449.90209961 C-124.78729715 459.78729715 -124.78729715 459.78729715 -127.94921875 462.94921875 C-130.64657228 464.07720295 -133.11020654 464.55803159 -136 465 C-137.03769531 465.28488281 -138.07539063 465.56976562 -139.14453125 465.86328125 C-147.19235576 467.91362487 -155.03906614 468.3064882 -163.3125 468.375 C-164.3142627 468.38885742 -165.31602539 468.40271484 -166.34814453 468.41699219 C-176.16758553 468.35528576 -184.24617789 466.32689258 -192.125 460.375 C-192.72481689 459.92970947 -193.32463379 459.48441895 -193.94262695 459.02563477 C-201.89224552 452.972216 -207.09543539 445.95159629 -212.375 437.5625 C-221.87162709 422.53472709 -234.06320055 412.04683781 -251.625 407.6171875 C-258.03170942 406.44559018 -264.19187616 405.65430654 -270 409 C-269.54256346 413.91744284 -268.44926953 416.45996022 -265 420 C-261.96413106 422.43013737 -258.79187778 424.53646179 -255.4375 426.5 C-242.20860251 434.64085999 -234.01780093 449.93782081 -228.07080078 463.85546875 C-221.25883884 479.75088604 -213.98394145 490.13813113 -198 498 C-185.10011241 503.12021605 -172.01595714 504.33462679 -158.25 504.25 C-157.00734375 504.25773437 -155.7646875 504.26546875 -154.484375 504.2734375 C-145.18300073 504.25421978 -136.18614916 503.32873789 -127 502 C-126.93034715 509.58894909 -126.87711135 517.17786484 -126.84456348 524.76706123 C-126.82893838 528.29143732 -126.80775856 531.81559394 -126.77368164 535.33984375 C-126.73471048 539.39585421 -126.72026477 543.4516358 -126.70703125 547.5078125 C-126.69154739 548.76739777 -126.67606354 550.02698303 -126.66011047 551.32473755 C-126.65977058 553.09589432 -126.65977058 553.09589432 -126.65942383 554.90283203 C-126.64943108 556.45503952 -126.64943108 556.45503952 -126.63923645 558.03860474 C-127.22244923 562.82601627 -128.98135631 566.05775458 -132.5 569.3125 C-137.43911234 572.64640083 -142.23272553 572.76130896 -148 572 C-152.81399285 570.5225851 -157.44450376 568.72043902 -162.09277344 566.79052734 C-163.76487468 566.09745722 -165.44805784 565.4312491 -167.1328125 564.76953125 C-175.67395423 561.36005642 -183.85540295 557.25483386 -192 553 C-192.71462402 552.62746094 -193.42924805 552.25492188 -194.16552734 551.87109375 C-220.55641412 537.98425032 -243.38727216 519.82933474 -264.4375 498.8125 C-265.19527237 498.05673676 -265.19527237 498.05673676 -265.96835327 497.28570557 C-273.62988244 489.61977958 -280.61738954 481.76368793 -287 473 C-288.24486999 471.42577858 -289.48978906 469.85158436 -290.74047852 468.28198242 C-321.07424968 429.88115679 -339.90218664 382.18360988 -347 334 C-347.17877686 332.80971191 -347.35755371 331.61942383 -347.54174805 330.39306641 C-349.27221891 317.98924081 -349.35825107 305.63116818 -349.3125 293.125 C-349.31001251 292.04051575 -349.30752502 290.95603149 -349.30496216 289.83868408 C-349.06455192 222.05298904 -326.87051447 159.38145128 -285 106 C-284.5659082 105.44586426 -284.13181641 104.89172852 -283.68457031 104.32080078 C-276.69228683 95.52535734 -268.78704198 87.58353013 -260.875 79.625 C-260.36384644 79.10848877 -259.85269287 78.59197754 -259.3260498 78.05981445 C-252.89042338 71.57309934 -246.2705332 65.55648719 -239 60 C-237.90100068 59.1292967 -236.80315414 58.25713415 -235.70703125 57.3828125 C-204.33994729 32.9156404 -167.14615299 12.95765091 -128.09082031 4.47119141 C-125.74448915 3.94241757 -123.41700114 3.3541116 -121.0859375 2.76171875 C-82.20345499 -6.93738815 -39.34548724 -7.35929176 0 0 Z " fill="#FEFEFE" transform="translate(447,103)"/>
</svg>
