<svg id="svg" version="1.1" xmlns="http://www.w3.org/2000/svg" xmlns:xlink="http://www.w3.org/1999/xlink" width="400" height="400" viewBox="0, 0, 400,400"><g id="svgg"><path id="path0" d="M86.400 42.258 C 50.299 45.605,33.391 88.171,57.773 114.330 C 84.640 143.157,132.279 124.507,132.183 85.200 C 132.127 62.404,116.225 44.797,93.535 42.407 C 89.844 42.019,89.140 42.004,86.400 42.258 M272.800 143.445 C 250.319 145.350,234.074 153.333,223.179 167.828 C 221.620 169.903,220.189 171.600,219.999 171.600 C 219.809 171.600,219.597 167.505,219.527 162.500 C 219.387 152.490,219.198 151.644,216.537 149.124 C 213.582 146.325,214.621 146.418,186.200 146.413 L 160.600 146.408 158.572 147.352 C 156.099 148.504,154.174 150.739,153.389 153.373 C 152.777 155.421,152.456 346.068,153.058 349.707 C 153.493 352.339,155.541 355.180,158.000 356.563 L 160.200 357.800 186.200 357.800 L 212.200 357.800 214.278 356.705 C 216.203 355.689,217.966 353.722,219.033 351.400 C 219.247 350.933,219.486 327.673,219.606 295.600 L 219.812 240.600 220.897 235.951 C 226.543 211.744,238.016 200.657,257.400 200.675 C 277.328 200.694,288.439 212.769,291.191 237.400 C 291.441 239.635,291.595 261.419,291.597 294.836 C 291.600 353.386,291.498 350.679,293.824 354.035 C 294.516 355.034,295.708 355.987,297.151 356.696 L 299.400 357.800 326.000 357.800 L 352.600 357.800 354.702 356.635 C 357.106 355.303,358.594 353.548,359.451 351.031 C 360.213 348.795,360.038 233.976,359.261 225.800 C 354.686 177.713,338.678 153.889,305.400 145.642 C 297.908 143.786,281.684 142.692,272.800 143.445 M62.088 147.431 C 59.743 148.600,58.253 150.183,57.037 152.800 L 56.200 154.600 56.200 252.200 L 56.200 349.800 57.274 351.836 C 57.865 352.956,59.022 354.463,59.845 355.186 C 62.967 357.927,61.526 357.800,89.428 357.800 L 114.657 357.800 116.992 356.600 C 119.562 355.279,121.670 352.709,122.397 350.010 C 123.225 346.938,122.732 154.041,121.893 152.505 C 120.656 150.244,118.668 148.302,116.603 147.341 L 114.600 146.408 89.379 146.404 L 64.157 146.400 62.088 147.431 " stroke="none" fill="#fbfbfb" fill-rule="evenodd"></path><path id="path1" d="M22.976 0.973 C 12.110 5.158,4.047 13.537,0.627 24.200 C 0.042 26.025,-0.005 41.515,0.093 201.000 L 0.200 375.800 1.544 378.916 C 5.390 387.833,12.617 395.175,21.103 398.786 L 23.962 400.003 200.681 399.901 L 377.400 399.800 380.441 398.310 C 388.826 394.201,395.075 387.722,398.747 379.330 L 400.003 376.460 399.901 199.930 L 399.800 23.400 398.089 19.839 C 393.725 10.756,386.913 4.566,377.296 0.946 L 374.782 0.000 200.091 0.020 L 25.400 0.039 22.976 0.973 M93.535 42.407 C 128.603 46.101,144.789 87.028,121.724 113.687 C 107.076 130.619,80.491 133.111,63.029 119.190 C 32.120 94.548,46.892 45.921,86.400 42.258 C 89.140 42.004,89.844 42.019,93.535 42.407 M298.000 144.185 C 336.149 150.216,354.381 174.507,359.261 225.800 C 360.038 233.976,360.213 348.795,359.451 351.031 C 358.594 353.548,357.106 355.303,354.702 356.635 L 352.600 357.800 326.000 357.800 L 299.400 357.800 297.151 356.696 C 295.708 355.987,294.516 355.034,293.824 354.035 C 291.498 350.679,291.600 353.386,291.597 294.836 C 291.595 261.419,291.441 239.635,291.191 237.400 C 288.439 212.769,277.328 200.694,257.400 200.675 C 238.016 200.657,226.543 211.744,220.897 235.951 L 219.812 240.600 219.606 295.600 C 219.486 327.673,219.247 350.933,219.033 351.400 C 217.966 353.722,216.203 355.689,214.278 356.705 L 212.200 357.800 186.200 357.800 L 160.200 357.800 158.000 356.563 C 155.541 355.180,153.493 352.339,153.058 349.707 C 152.456 346.068,152.777 155.421,153.389 153.373 C 154.174 150.739,156.099 148.504,158.572 147.352 L 160.600 146.408 186.200 146.413 C 214.621 146.418,213.582 146.325,216.537 149.124 C 219.198 151.644,219.387 152.490,219.527 162.500 C 219.597 167.505,219.809 171.600,219.999 171.600 C 220.189 171.600,221.620 169.903,223.179 167.828 C 234.074 153.333,250.319 145.350,272.800 143.445 C 277.332 143.061,293.982 143.550,298.000 144.185 M116.603 147.341 C 118.668 148.302,120.656 150.244,121.893 152.505 C 122.732 154.041,123.225 346.938,122.397 350.010 C 121.670 352.709,119.562 355.279,116.992 356.600 L 114.657 357.800 89.428 357.800 C 61.526 357.800,62.967 357.927,59.845 355.186 C 59.022 354.463,57.865 352.956,57.274 351.836 L 56.200 349.800 56.200 252.200 L 56.200 154.600 57.037 152.800 C 58.253 150.183,59.743 148.600,62.088 147.431 L 64.157 146.400 89.379 146.404 L 114.600 146.408 116.603 147.341 " stroke="none" fill="#047cbc" fill-rule="evenodd"></path></g></svg>